<svg width="470" height="470" xmlns="http://www.w3.org/2000/svg" xml:space="preserve" version="1.1" fill="#000000">
 <g>
  <title>Layer 1</title>
  <g id="svg_1">
   <path id="svg_2" d="m162.5,102.5c0,-39.977 32.523,-72.5 72.5,-72.5s72.5,32.523 72.5,72.5l0,57.5l30,0l0,-57.5c0,-56.519 -45.981,-102.5 -102.5,-102.5s-102.5,45.981 -102.5,102.5l0,57.5l30,0l0,-57.5z"/>
   <path d="m77.5,190l0,280l315,0l0,-280l-315,0zm211.594,172.881l-21.213,21.213l-32.881,-32.881l-32.881,32.881l-21.213,-21.213l32.881,-32.881l-32.881,-32.881l21.213,-21.213l32.881,32.881l32.881,-32.881l21.213,21.213l-32.881,32.881l32.881,32.881z" id="svg_3"/>
  </g>
  <path transform="rotate(180 234.5 328)" stroke="#000" id="svg_4" d="m126.00001,327.73838l108.50001,-108.73837l108.50001,108.73837l-54.25001,0l0,109.2616l-108.5,0l0,-109.2616l-54.25001,0z" fill="#fff"/>
 </g>

</svg>